<svg aria-hidden="true" style="width:0;height:0;position:absolute;overflow:hidden" xmlns="http://www.w3.org/2000/svg"><defs><symbol id="icon-burger" viewBox="0 0 32 32"><path d="M2.666 8c0-.737.597-1.334 1.334-1.334h24a1.334 1.334 0 1 1 0 2.668H4A1.334 1.334 0 0 1 2.666 8zm0 8.042A1.335 1.335 0 0 1 4 14.709h24l.039-.001a1.334 1.334 0 1 1 0 2.668l-.041-.001H28 4a1.334 1.334 0 0 1-1.334-1.334zM4 22.752a1.334 1.334 0 0 0-.002 2.666H28l.039.001a1.334 1.334 0 1 0 0-2.668l-.041.001H28 4z"/></symbol><symbol id="icon-cross" viewBox="0 0 30 32"><path d="m16.219 14.826 4.928-4.923a1.013 1.013 0 0 0-1.431-1.428l.001-.001-4.927 4.874-4.959-4.955a1.014 1.014 0 0 0-1.427 1.429l-.001-.002 4.948 5.006-4.847 4.782a1.013 1.013 0 1 0 1.429 1.43l.001-.001 4.836-4.832 4.806 4.801a1.014 1.014 0 0 0 1.427-1.429l.001.002-4.785-4.751z"/></symbol><symbol id="icon-order" viewBox="0 0 24 32"><path fill="#7eb101" style="fill:var(--color1,#7eb101)" d="M11.586.367c2.231 0 4.138.779 5.719 2.336 1.582 1.557 2.372 3.452 2.372 5.683a8.095 8.095 0 0 1-.828 3.605 8.19 8.19 0 0 1-2.317 2.855l-.018.014h-1.251v-1.839a5.713 5.713 0 0 0 1.623-2.026l.015-.034a5.9 5.9 0 0 0 .569-2.547v-.028.001c0-1.619-.576-2.991-1.728-4.119-1.153-1.129-2.538-1.693-4.157-1.693s-3.004.564-4.157 1.693C6.277 5.396 5.7 6.768 5.7 8.387c0 .907.19 1.766.569 2.574a5.727 5.727 0 0 0 1.626 2.051l.012.009v2.648a8.072 8.072 0 0 1-3.218-2.98l-.02-.035a8.014 8.014 0 0 1-1.177-4.205v-.066.003c0-2.231.79-4.126 2.372-5.683C7.445 1.146 9.351.367 11.583.367zm-1.398 30.897a2.93 2.93 0 0 1-1.176-.238 3.078 3.078 0 0 1-.957-.645L.478 22.805l2.06-2.134a3.67 3.67 0 0 1 1.159-.79 2.033 2.033 0 0 1 1.357-.09l-.014-.003 2.869.662V8.46c0-1.031.355-1.901 1.066-2.612.712-.711 1.582-1.067 2.612-1.067s1.9.356 2.612 1.067c.711.711 1.066 1.581 1.066 2.612v6.326h.957a.72.72 0 0 1 .331.074c.098.049.209.097.331.147l5.443 2.648a2.603 2.603 0 0 1 1.306 1.305 2.96 2.96 0 0 1 .238 1.858l-1.324 8.018a2.78 2.78 0 0 1-1.024 1.743l-.006.004c-.51.423-1.17.68-1.891.68h-9.438zm-.293-2.207H20.23l1.582-9.159-6.731-3.347h-2.024V8.459c0-.441-.135-.798-.404-1.067-.27-.269-.626-.405-1.067-.405s-.797.136-1.067.405c-.269.269-.404.626-.404 1.067v14.676L4.45 21.921l-.845.845 6.29 6.29zm10.335 0z"/></symbol><symbol id="icon-rocket" viewBox="0 0 32 32"><path fill="#7eb101" style="fill:var(--color1,#7eb101)" d="m4.838 13.295 4.039 1.714c.457-.914.945-1.815 1.466-2.704S11.416 10.564 12 9.752l-3.009-.609-4.153 4.152zm5.867 3.086 5.066 5.067a29.78 29.78 0 0 0 4.187-2.317l-.11.069c1.269-.838 2.297-1.65 3.086-2.438 2.057-2.057 3.568-4.166 4.533-6.325.966-2.159 1.486-4.597 1.562-7.314-2.718.077-5.155.598-7.314 1.562s-4.266 2.477-6.323 4.534c-.789.787-1.6 1.816-2.439 3.086a29.08 29.08 0 0 0-2.17 3.89l-.077.185zm8.724-3.658c-.507-.507-.762-1.136-.762-1.886 0-.749.255-1.377.762-1.886.507-.507 1.136-.761 1.886-.761s1.378.254 1.886.761c.507.509.762 1.137.762 1.886 0 .75-.255 1.378-.762 1.886-.507.509-1.136.762-1.886.762s-1.378-.254-1.886-.762zm-.572 14.591 4.152-4.152-.609-3.01a32.38 32.38 0 0 1-2.552 1.657 46.309 46.309 0 0 1-2.705 1.467l1.714 4.038zM31.277.877c.229 3.454-.203 6.602-1.296 9.447-1.091 2.846-2.895 5.525-5.409 8.039l-.077.075-.075.077.838 4.191c.077.381.057.749-.057 1.104a2.334 2.334 0 0 1-.591.953l-6.514 6.552-3.238-7.543-6.477-6.477-7.543-3.238 6.553-6.514c.279-.279.597-.477.952-.591s.723-.133 1.105-.057l4.19.839a.294.294 0 0 1 .075-.056l.002-.001a.315.315 0 0 0 .076-.057c2.514-2.514 5.193-4.325 8.038-5.429C24.674 1.086 27.822.648 31.277.877zM3.391 21.905c.888-.889 1.974-1.341 3.257-1.353 1.282-.011 2.368.426 3.257 1.314.888.889 1.326 1.975 1.314 3.257-.013 1.283-.464 2.369-1.353 3.257-.659.661-1.682 1.207-3.066 1.639s-3.461.838-6.229 1.218c.381-2.768.781-4.85 1.2-6.247.419-1.398.959-2.426 1.619-3.086zm1.6 1.638c-.355.381-.674.978-.953 1.791-.279.811-.52 1.854-.723 3.123 1.27-.203 2.311-.445 3.123-.723.813-.28 1.41-.598 1.791-.953.482-.431.73-.971.743-1.618l.001-.07a2.31 2.31 0 0 0-.668-1.627 2.305 2.305 0 0 0-1.626-.667l-.073.001h.004a2.138 2.138 0 0 0-1.616.74l-.002.003z"/></symbol><symbol id="logo-foodsta" viewBox="0 0 41 32"><path fill="#ffe550" style="fill:var(--color1,#ffe550)" d="M14.121 6.486c1.014-1.99 3.864-1.99 4.878 0l1.263 2.476a2.741 2.741 0 0 0 1.992 1.456l.016.002 2.759.439c2.203.351 3.082 3.042 1.508 4.62l-1.986 1.991a2.716 2.716 0 0 0-.761 2.364l-.002-.016.436 2.769c.347 2.202-1.957 3.868-3.948 2.854l-2.472-1.258c-.362-.188-.79-.298-1.244-.298s-.882.11-1.26.306l.015-.007-2.471 1.258c-1.991 1.014-4.295-.652-3.948-2.854l.437-2.769a2.719 2.719 0 0 0-.764-2.349l-1.986-1.99c-1.574-1.577-.695-4.269 1.508-4.62l2.759-.439a2.748 2.748 0 0 0 2.001-1.443l.007-.015 1.263-2.476z"/><path fill="#2c2c2c" style="fill:var(--color2,#2c2c2c)" d="m1.118 20.356-.022.005c.002.074-.001.374-.012.9-.002.244-.003.533-.003.821v.223-.012c0 .158-.004.286-.01.384l.001.337c0 .105-.008.207-.022.308l.001-.012-.018.207c-.014.13-.042.201-.085.211-.092.022-.236-.049-.433-.212-.198-.17-.311-.319-.342-.446s-.037-1.061-.021-2.8c.023-1.74-.023-2.885-.137-3.434a.403.403 0 0 1 .015-.275l-.001.003c.036-.166.22-.321.553-.468.34-.148.847-.302 1.521-.461.682-.161 1.223-.252 1.623-.272.407-.022.626.031.656.159.02.085-.026.159-.138.223a4.95 4.95 0 0 1-.265.145l-.034.015c-.089.037-.206.082-.35.139-.329.105-.463.153-.597.202l.192-.061c-.126.037-.289.091-.49.161-.194.068-.374.133-.538.194-.167.055-.392.134-.675.238s-.466.17-.549.197c.012.02.023.051.033.094.078.333.121 1.13.127 2.393a10.907 10.907 0 0 0 1.487-.39l-.078.023c.501-.164.809-.258.922-.286.27-.063.418-.039.445.074.052.22-.214.477-.796.772a8.744 8.744 0 0 1-1.96.7zm6.953-1.959a2.02 2.02 0 0 0-.283-.66l.005.007c-.13-.201-.281-.334-.454-.398-.458.25-.791.729-.998 1.436-.202.699-.239 1.321-.11 1.866s.345.853.646.924c.487-.22.839-.67 1.053-1.348.22-.688.267-1.297.142-1.828zm-2.779.758a4.094 4.094 0 0 1 .647-1.589c.32-.457.689-.735 1.108-.834.426-.101.823-.004 1.193.289.368.287.613.689.735 1.206.121.511.12 1.064-.001 1.661a3.795 3.795 0 0 1-.725 1.581l.006-.008c-.351.449-.772.732-1.262.849-.362.086-.703-.009-1.023-.286s-.54-.668-.661-1.178c-.122-.517-.128-1.08-.017-1.69zm7.604-1.9a2.018 2.018 0 0 0-.282-.66l.005.007c-.13-.201-.281-.334-.454-.398-.458.25-.791.729-.998 1.437-.202.698-.239 1.321-.11 1.866s.345.854.646.924c.487-.22.839-.67 1.052-1.349.22-.688.267-1.297.142-1.828zm-2.778.758a4.094 4.094 0 0 1 .647-1.589c.319-.457.689-.735 1.108-.834.426-.101.823-.004 1.193.29.368.287.613.689.735 1.206.121.51.121 1.063-.001 1.66a3.784 3.784 0 0 1-.726 1.581l.006-.008c-.351.45-.771.732-1.262.849-.362.086-.703-.009-1.023-.285s-.54-.669-.661-1.179c-.122-.517-.128-1.08-.017-1.69zm7.816-6.999c.113-.027.277.047.49.22.219.165.351.34.394.524s.079.729.106 1.636c.025.898.029 1.836.012 2.812-.022 2.19-.114 3.303-.278 3.342-.099.023-.223-.01-.373-.102-.143-.101-.226-.197-.248-.289s-.041-.282-.056-.57c-.529.873-1.052 1.371-1.57 1.494-.313.074-.63 0-.953-.223-.316-.225-.51-.489-.582-.794-.103-.439-.11-.987-.018-1.644a5.616 5.616 0 0 1 .656-1.93l-.015.028c.33-.602.748-.962 1.252-1.082s.926.098 1.268.654c.007-1.588-.074-2.821-.245-3.7-.05-.212.002-.337.159-.374zm.061 5.494c-.09-.382-.234-.689-.431-.919-.19-.232-.377-.326-.561-.282-.305.073-.574.334-.804.785a4.532 4.532 0 0 0-.457 1.452l-.003.025c-.071.526-.064.966.02 1.32a.394.394 0 0 0 .209.274l.002.001a.497.497 0 0 0 .361.038l-.004.001c.277-.066.602-.352.977-.86a3.585 3.585 0 0 0 .702-1.647l.002-.135-.012-.053zm6.798-.644c.137.581-.01 1.132-.441 1.652a3.043 3.043 0 0 1-1.673 1.013c-.674.16-1.273.118-1.795-.125-.524-.25-.823-.53-.897-.842-.05-.212-.011-.334.117-.364.113-.027.377.09.791.351.156.09.353.163.591.219.245.054.489.053.73-.004.497-.118.907-.35 1.231-.695.33-.347.46-.67.39-.967-.046-.191-.231-.406-.557-.642s-.676-.449-1.05-.638a8.126 8.126 0 0 1-1.066-.677l.021.015c-.327-.244-.513-.455-.554-.632a1.669 1.669 0 0 1-.026-.597l-.001.009c.025-.215.068-.378.132-.491.205-.37.568-.751 1.09-1.145.529-.394.993-.638 1.39-.732.206-.049.396-.023.569.078s.278.226.314.375c.017.071-.044.145-.184.223-.126.074-.336.184-.549.29l-.092.042c-.283.134-.53.275-.743.423-.743.505-1.08.902-1.011 1.193.037.156.555.493 1.555 1.012.385.201.748.455 1.091.763.348.299.558.597.628.895zm2.445.532c.032.135.126.183.282.146.27-.064.578-.215.927-.455.354-.248.552-.377.594-.387.128-.031.207.022.24.156.048.206-.109.494-.471.863-.355.368-.706.593-1.055.676-.34.081-.646.055-.917-.074-.273-.137-.432-.305-.479-.504s-.063-.46-.05-.784c.012-.332.036-.768.074-1.308.042-.549.07-1.001.084-1.355-.315.157-.529.249-.643.276s-.24-.003-.381-.089c-.135-.095-.215-.196-.24-.302-.041-.17.383-.442 1.269-.817a7.654 7.654 0 0 0-.178-1.607c-.05-.213-.004-.336.138-.369.121-.029.288.014.503.127.212.107.342.256.386.447s.065.542.058 1.052c.229-.084.548-.181.873-.265l.083-.018c.426-.1.661-.059.705.126.025.106-.071.222-.289.348-.21.125-.667.349-1.37.673-.017.594-.053 1.28-.11 2.057-.058.769-.068 1.231-.032 1.387zm4.764-5.57c.319-.076.652.017.999.279.345.255.549.513.61.775.06.255.034.538-.08.849.11.086.174.168.193.246.047.198.081.549.103 1.052.029.502.05.83.064.983a3.387 3.387 0 0 1 .05.64c.014.183-.03.287-.129.311-.127.031-.26-.054-.397-.254-.132-.209-.246-.488-.345-.839-.443.95-.934 1.489-1.473 1.617-.326.077-.682.015-1.067-.185-.38-.21-.604-.463-.674-.761-.101-.425-.068-.986.097-1.684a6.327 6.327 0 0 1 .833-1.991l-.015.026c.382-.607.792-.962 1.233-1.066zm.932 1.754c-.156-.658-.365-.957-.628-.895-.277.066-.553.34-.828.825a5.778 5.778 0 0 0-.615 1.509l-.009.041c-.138.556-.173.98-.105 1.27a.373.373 0 0 0 .217.261l.002.001a.609.609 0 0 0 .377.023c.334-.079.657-.391.97-.936.312-.553.473-1.17.484-1.854-.004-.111.042-.19.136-.234l-.002-.011z"/><path fill="#bbf330" style="fill:var(--color3,#bbf330)" d="M30.751 19.975a.92.92 0 0 0-.642.597l-.002.006c-1.907 5.652-7.247 9.717-13.529 9.717-3.81 0-7.274-1.495-9.835-3.934a.917.917 0 0 0-.859-.233l.006-.001c-.641.159-.884.932-.409 1.39a15.87 15.87 0 0 0 11.076 4.482h.021-.001c7.079 0 13.084-4.606 15.186-10.986.207-.626-.371-1.198-1.013-1.04zM1.865 14.148a.908.908 0 0 0 .668-.725C3.745 6.755 9.577 1.705 16.579 1.705c4.553 0 8.611 2.135 11.226 5.463.22.281.583.416.93.33.585-.145.85-.823.481-1.298C26.291 2.428 21.718 0 16.577 0 8.695 0 2.144 5.711.831 13.223c-.103.593.449 1.07 1.034.925zm38.75-8.816c-3.778 7.241-5.436 2.465-10.755 5.27.532-8.405 6.165-3.291 10.755-5.27z"/></symbol><symbol id="icon-arrow" viewBox="0 0 19 32"><path d="M17.904 15.594c.228.229.369.544.369.893s-.141.664-.369.893L5.014 30.273c-.229.228-.544.369-.893.369s-.664-.141-.893-.369l-.598-.595c-.23-.229-.372-.546-.372-.896s.142-.667.372-.896l11.398-11.395L2.63 5.089a1.26 1.26 0 0 1 0-1.788l.595-.595c.229-.23.546-.372.896-.372s.667.142.896.372l12.886 12.89z"/></symbol><symbol id="icon-star" viewBox="0 0 34 32"><path fill="#ffe550" style="fill:var(--color1,#ffe550)" d="M15.42 1.038c.584-1.384 2.576-1.384 3.16 0L22.028 9.2c.246.582.804.98 1.444 1.032l8.952.706c1.516.12 2.132 1.982.976 2.958l-6.82 5.752a1.666 1.666 0 0 0-.55 1.682l-.002-.011 2.084 8.6c.352 1.456-1.258 2.608-2.556 1.828l-7.664-4.61a1.734 1.734 0 0 0-1.792.004l.008-.004-7.664 4.61c-1.3.78-2.908-.372-2.556-1.828l2.084-8.6a1.663 1.663 0 0 0-.55-1.667l-.003-.002-6.82-5.75c-1.156-.976-.54-2.84.976-2.96l8.952-.704a1.714 1.714 0 0 0 1.44-1.021l.004-.011 3.448-8.164z"/></symbol><symbol id="icon-vector-left" viewBox="0 0 18 32"><path d="m.48 16.965 14.861 14.16a1.334 1.334 0 0 0 1.84 0l.016-.016a1.237 1.237 0 0 0 .382-.889 1.22 1.22 0 0 0-.382-.889L3.202 15.998 17.197 2.67a1.222 1.222 0 0 0 .282-1.373 1.231 1.231 0 0 0-.282-.405l-.016-.016a1.336 1.336 0 0 0-1.84 0L.48 15.036a1.331 1.331 0 0 0 0 1.93z"/></symbol><symbol id="icon-vector-right" viewBox="0 0 18 32"><path d="M17.653 15.035 2.792.875a1.334 1.334 0 0 0-1.84 0L.936.891a1.222 1.222 0 0 0-.282 1.373c.065.153.162.291.282.405l13.995 13.333L.936 29.33a1.212 1.212 0 0 0-.381.889 1.236 1.236 0 0 0 .381.889l.016.016a1.334 1.334 0 0 0 1.84 0l14.861-14.16a1.331 1.331 0 0 0 0-1.93z"/></symbol></defs></svg>