<svg aria-hidden="true" style="position:absolute;width:0;height:0;overflow:hidden" xmlns="http://www.w3.org/2000/svg">
    <defs>
        <symbol id="icon-burger" viewBox="0 0 32 32">
        <path  d="M2.666 8c0-0.737 0.597-1.334 1.334-1.334v0h24c0.737 0 1.334 0.597 1.334 1.334s-0.597 1.334-1.334 1.334h-24c-0.737 0-1.334-0.597-1.334-1.334v0zM2.666 16.042c0.001-0.736 0.598-1.333 1.334-1.333 0 0 0 0 0 0h24c0.012-0 0.025-0.001 0.039-0.001 0.737 0 1.334 0.597 1.334 1.334s-0.597 1.334-1.334 1.334c-0.014 0-0.027-0-0.041-0.001l0.002 0h-24c-0.737 0-1.334-0.597-1.334-1.334v0zM4 22.752c-0.72 0.022-1.295 0.61-1.295 1.333s0.575 1.311 1.293 1.333l0.002 0h24c0.012 0 0.025 0.001 0.039 0.001 0.737 0 1.334-0.597 1.334-1.334s-0.597-1.334-1.334-1.334c-0.014 0-0.027 0-0.041 0.001l0.002-0h-24z"></path>
        </symbol>
        <symbol id="icon-cross" viewBox="0 0 30 32">
        <path d="M16.219 14.826l4.928-4.923c0.156-0.177 0.252-0.412 0.252-0.668 0-0.559-0.453-1.013-1.013-1.013-0.257 0-0.492 0.096-0.67 0.253l0.001-0.001-4.927 4.874-4.959-4.955c-0.175-0.146-0.402-0.235-0.649-0.235-0.56 0-1.014 0.454-1.014 1.014 0 0.247 0.089 0.474 0.236 0.65l-0.001-0.002 4.948 5.006-4.847 4.782c-0.211 0.187-0.344 0.458-0.344 0.76 0 0.559 0.454 1.013 1.013 1.013 0.303 0 0.574-0.133 0.76-0.343l0.001-0.001 4.836-4.832 4.806 4.801c0.175 0.146 0.402 0.235 0.649 0.235 0.56 0 1.014-0.454 1.014-1.014 0-0.247-0.089-0.474-0.236-0.65l0.001 0.002-4.785-4.751z"></path>
        </symbol>
        <symbol id="icon-order" viewBox="0 0 24 32">
        <path fill="#7eb101" style="fill: var(--color1, #7eb101)" d="M11.586 0.367c2.231 0 4.138 0.779 5.719 2.336 1.582 1.557 2.372 3.452 2.372 5.683 0 1.276-0.276 2.476-0.828 3.605-0.568 1.148-1.356 2.107-2.317 2.855l-0.018 0.014h-1.251v-1.839c0.692-0.546 1.246-1.236 1.623-2.026l0.015-0.034c0.359-0.746 0.569-1.622 0.569-2.547 0-0.009-0-0.019-0-0.028v0.001c0-1.619-0.576-2.991-1.728-4.119-1.153-1.129-2.538-1.693-4.157-1.693s-3.004 0.564-4.157 1.693c-1.151 1.128-1.728 2.5-1.728 4.119 0 0.907 0.19 1.766 0.569 2.574 0.392 0.824 0.946 1.514 1.626 2.051l0.012 0.009v2.648c-1.355-0.698-2.454-1.726-3.218-2.98l-0.020-0.035c-0.739-1.198-1.177-2.65-1.177-4.205 0-0.022 0-0.044 0-0.066l-0 0.003c0-2.231 0.79-4.126 2.372-5.683 1.581-1.557 3.487-2.336 5.719-2.336zM10.188 31.264c-0.416 0-0.809-0.079-1.176-0.238-0.371-0.161-0.689-0.378-0.957-0.645l-7.577-7.576 2.060-2.134c0.343-0.342 0.729-0.607 1.159-0.79 0.236-0.105 0.512-0.167 0.802-0.167 0.192 0 0.379 0.027 0.555 0.077l-0.014-0.003 2.869 0.662v-11.99c0-1.031 0.355-1.901 1.066-2.612 0.712-0.711 1.582-1.067 2.612-1.067s1.9 0.356 2.612 1.067c0.711 0.711 1.066 1.581 1.066 2.612v6.326h0.957c0.122 0 0.233 0.024 0.331 0.074 0.098 0.049 0.209 0.097 0.331 0.147l5.443 2.648c0.589 0.269 1.024 0.705 1.306 1.305 0.281 0.601 0.361 1.22 0.238 1.858l-1.324 8.018c-0.117 0.714-0.492 1.324-1.024 1.743l-0.006 0.004c-0.51 0.423-1.17 0.68-1.891 0.68-0.007 0-0.015-0-0.022-0h-9.416zM9.895 29.057h10.335l1.582-9.159-6.731-3.347h-2.024v-8.092c0-0.441-0.135-0.798-0.404-1.067-0.27-0.269-0.626-0.405-1.067-0.405s-0.797 0.136-1.067 0.405c-0.269 0.269-0.404 0.626-0.404 1.067v14.676l-5.665-1.214-0.845 0.845 6.29 6.29zM20.23 29.057v0z"></path>
        </symbol>
        <symbol id="icon-rocket" viewBox="0 0 32 32">
        <path fill="#7eb101" style="fill: var(--color1, #7eb101)" d="M4.838 13.295l4.039 1.714c0.457-0.914 0.945-1.815 1.466-2.704s1.073-1.741 1.657-2.553l-3.009-0.609-4.153 4.152zM10.705 16.381l5.066 5.067c1.58-0.723 2.918-1.473 4.187-2.317l-0.11 0.069c1.269-0.838 2.297-1.65 3.086-2.438 2.057-2.057 3.568-4.166 4.533-6.325 0.966-2.159 1.486-4.597 1.562-7.314-2.718 0.077-5.155 0.598-7.314 1.562s-4.266 2.477-6.323 4.534c-0.789 0.787-1.6 1.816-2.439 3.086-0.775 1.159-1.524 2.495-2.17 3.89l-0.077 0.185zM19.429 12.723c-0.507-0.507-0.762-1.136-0.762-1.886 0-0.749 0.255-1.377 0.762-1.886 0.507-0.507 1.136-0.761 1.886-0.761s1.378 0.254 1.886 0.761c0.507 0.509 0.762 1.137 0.762 1.886 0 0.75-0.255 1.378-0.762 1.886-0.507 0.509-1.136 0.762-1.886 0.762s-1.378-0.254-1.886-0.762zM18.857 27.314l4.152-4.152-0.609-3.010c-0.813 0.585-1.664 1.137-2.552 1.657-0.889 0.521-1.791 1.010-2.705 1.467l1.714 4.038zM31.277 0.877c0.229 3.454-0.203 6.602-1.296 9.447-1.091 2.846-2.895 5.525-5.409 8.039l-0.077 0.075-0.075 0.077 0.838 4.191c0.077 0.381 0.057 0.749-0.057 1.104-0.114 0.357-0.311 0.674-0.591 0.953l-6.514 6.552-3.238-7.543-6.477-6.477-7.543-3.238 6.553-6.514c0.279-0.279 0.597-0.477 0.952-0.591s0.723-0.133 1.105-0.057l4.19 0.839c0.022-0.022 0.047-0.042 0.075-0.056l0.002-0.001c0.029-0.016 0.055-0.035 0.076-0.057l0-0c2.514-2.514 5.193-4.325 8.038-5.429 2.845-1.105 5.993-1.543 9.448-1.314zM3.391 21.905c0.888-0.889 1.974-1.341 3.257-1.353 1.282-0.011 2.368 0.426 3.257 1.314 0.888 0.889 1.326 1.975 1.314 3.257-0.013 1.283-0.464 2.369-1.353 3.257-0.659 0.661-1.682 1.207-3.066 1.639s-3.461 0.838-6.229 1.218c0.381-2.768 0.781-4.85 1.2-6.247 0.419-1.398 0.959-2.426 1.619-3.086zM4.991 23.543c-0.355 0.381-0.674 0.978-0.953 1.791-0.279 0.811-0.52 1.854-0.723 3.123 1.27-0.203 2.311-0.445 3.123-0.723 0.813-0.28 1.41-0.598 1.791-0.953 0.482-0.431 0.73-0.971 0.743-1.618 0.001-0.021 0.001-0.045 0.001-0.070 0-0.634-0.255-1.208-0.668-1.627l0 0c-0.418-0.413-0.992-0.667-1.626-0.667-0.024 0-0.049 0-0.073 0.001l0.004-0c-0.646 0.001-1.224 0.288-1.616 0.74l-0.002 0.003z"></path>
        </symbol>
            </defs>
            <symbol id="logo-foodsta" viewBox="0 0 41 32">
        <path fill="#ffe550" style="fill: var(--color1, #ffe550)" d="M14.121 6.486c1.014-1.99 3.864-1.99 4.878 0l1.263 2.476c0.397 0.767 1.126 1.315 1.992 1.456l0.016 0.002 2.759 0.439c2.203 0.351 3.082 3.042 1.508 4.62l-1.986 1.991c-0.492 0.493-0.796 1.173-0.796 1.925 0 0.15 0.012 0.296 0.035 0.439l-0.002-0.016 0.436 2.769c0.347 2.202-1.957 3.868-3.948 2.854l-2.472-1.258c-0.362-0.188-0.79-0.298-1.244-0.298s-0.882 0.11-1.26 0.306l0.015-0.007-2.471 1.258c-1.991 1.014-4.295-0.652-3.948-2.854l0.437-2.769c0.021-0.127 0.033-0.274 0.033-0.423 0-0.752-0.305-1.433-0.797-1.926v0l-1.986-1.99c-1.574-1.577-0.695-4.269 1.508-4.62l2.759-0.439c0.881-0.144 1.61-0.691 2.001-1.443l0.007-0.015 1.263-2.476z"></path>
        <path fill="#2c2c2c" style="fill: var(--color2, #2c2c2c)" d="M1.118 20.356l-0.022 0.005c0.002 0.074-0.001 0.374-0.012 0.9-0.002 0.244-0.003 0.533-0.003 0.821 0 0.074 0 0.149 0 0.223l-0-0.012c0 0.158-0.004 0.286-0.010 0.384l0.001 0.337c-0 0.105-0.008 0.207-0.022 0.308l0.001-0.012-0.018 0.207c-0.014 0.13-0.042 0.201-0.085 0.211-0.092 0.022-0.236-0.049-0.433-0.212-0.198-0.17-0.311-0.319-0.342-0.446s-0.037-1.061-0.021-2.8c0.023-1.74-0.023-2.885-0.137-3.434-0.011-0.035-0.017-0.075-0.017-0.116 0-0.056 0.011-0.11 0.032-0.159l-0.001 0.003c0.036-0.166 0.22-0.321 0.553-0.468 0.34-0.148 0.847-0.302 1.521-0.461 0.682-0.161 1.223-0.252 1.623-0.272 0.407-0.022 0.626 0.031 0.656 0.159 0.020 0.085-0.026 0.159-0.138 0.223-0.068 0.041-0.166 0.094-0.265 0.145l-0.034 0.015c-0.089 0.037-0.206 0.082-0.35 0.139-0.329 0.105-0.463 0.153-0.597 0.202l0.192-0.061c-0.126 0.037-0.289 0.091-0.49 0.161-0.194 0.068-0.374 0.133-0.538 0.194-0.167 0.055-0.392 0.134-0.675 0.238s-0.466 0.17-0.549 0.197c0.012 0.020 0.023 0.051 0.033 0.094 0.078 0.333 0.121 1.13 0.127 2.393 0.554-0.107 1.027-0.233 1.487-0.39l-0.078 0.023c0.501-0.164 0.809-0.258 0.922-0.286 0.27-0.063 0.418-0.039 0.445 0.074 0.052 0.22-0.214 0.477-0.796 0.772-0.575 0.294-1.229 0.526-1.96 0.7zM8.071 18.397c-0.058-0.247-0.154-0.465-0.283-0.66l0.005 0.007c-0.13-0.201-0.281-0.334-0.454-0.398-0.458 0.25-0.791 0.729-0.998 1.436-0.202 0.699-0.239 1.321-0.11 1.866s0.345 0.853 0.646 0.924c0.487-0.22 0.839-0.67 1.053-1.348 0.22-0.688 0.267-1.297 0.142-1.828zM5.292 19.155c0.118-0.611 0.334-1.141 0.647-1.589 0.32-0.457 0.689-0.735 1.108-0.834 0.426-0.101 0.823-0.004 1.193 0.289 0.368 0.287 0.613 0.689 0.735 1.206 0.121 0.511 0.12 1.064-0.001 1.661-0.124 0.602-0.375 1.132-0.725 1.581l0.006-0.008c-0.351 0.449-0.772 0.732-1.262 0.849-0.362 0.086-0.703-0.009-1.023-0.286s-0.54-0.668-0.661-1.178c-0.122-0.517-0.128-1.080-0.017-1.69zM12.896 17.255c-0.058-0.247-0.153-0.465-0.282-0.66l0.005 0.007c-0.13-0.201-0.281-0.334-0.454-0.398-0.458 0.25-0.791 0.729-0.998 1.437-0.202 0.698-0.239 1.321-0.11 1.866s0.345 0.854 0.646 0.924c0.487-0.22 0.839-0.67 1.052-1.349 0.22-0.688 0.267-1.297 0.142-1.828zM10.118 18.013c0.118-0.611 0.334-1.141 0.647-1.589 0.319-0.457 0.689-0.735 1.108-0.834 0.426-0.101 0.823-0.004 1.193 0.29 0.368 0.287 0.613 0.689 0.735 1.206 0.121 0.51 0.121 1.063-0.001 1.66-0.124 0.602-0.375 1.132-0.726 1.581l0.006-0.008c-0.351 0.45-0.771 0.732-1.262 0.849-0.362 0.086-0.703-0.009-1.023-0.285s-0.54-0.669-0.661-1.179c-0.122-0.517-0.128-1.080-0.017-1.69zM17.934 11.014c0.113-0.027 0.277 0.047 0.49 0.22 0.219 0.165 0.351 0.34 0.394 0.524s0.079 0.729 0.106 1.636c0.025 0.898 0.029 1.836 0.012 2.812-0.022 2.19-0.114 3.303-0.278 3.342-0.099 0.023-0.223-0.010-0.373-0.102-0.143-0.101-0.226-0.197-0.248-0.289s-0.041-0.282-0.056-0.57c-0.529 0.873-1.052 1.371-1.57 1.494-0.313 0.074-0.63 0-0.953-0.223-0.316-0.225-0.51-0.489-0.582-0.794-0.103-0.439-0.11-0.987-0.018-1.644 0.107-0.712 0.332-1.352 0.656-1.93l-0.015 0.028c0.33-0.602 0.748-0.962 1.252-1.082s0.926 0.098 1.268 0.654c0.007-1.588-0.074-2.821-0.245-3.7-0.050-0.212 0.002-0.337 0.159-0.374zM17.995 16.508c-0.090-0.382-0.234-0.689-0.431-0.919-0.19-0.232-0.377-0.326-0.561-0.282-0.305 0.073-0.574 0.334-0.804 0.785-0.222 0.428-0.384 0.926-0.457 1.452l-0.003 0.025c-0.071 0.526-0.064 0.966 0.020 1.32 0.025 0.121 0.103 0.221 0.209 0.274l0.002 0.001c0.067 0.035 0.146 0.055 0.23 0.055 0.045 0 0.089-0.006 0.131-0.017l-0.004 0.001c0.277-0.066 0.602-0.352 0.977-0.86 0.382-0.509 0.615-1.058 0.702-1.647l0.002-0.135-0.012-0.053zM24.793 15.864c0.137 0.581-0.010 1.132-0.441 1.652-0.434 0.514-0.991 0.852-1.673 1.013-0.674 0.16-1.273 0.118-1.795-0.125-0.524-0.25-0.823-0.53-0.897-0.842-0.050-0.212-0.011-0.334 0.117-0.364 0.113-0.027 0.377 0.090 0.791 0.351 0.156 0.090 0.353 0.163 0.591 0.219 0.245 0.054 0.489 0.053 0.73-0.004 0.497-0.118 0.907-0.35 1.231-0.695 0.33-0.347 0.46-0.67 0.39-0.967-0.046-0.191-0.231-0.406-0.557-0.642s-0.676-0.449-1.050-0.638c-0.401-0.215-0.743-0.434-1.066-0.677l0.021 0.015c-0.327-0.244-0.513-0.455-0.554-0.632-0.026-0.112-0.041-0.24-0.041-0.372 0-0.076 0.005-0.151 0.015-0.225l-0.001 0.009c0.025-0.215 0.068-0.378 0.132-0.491 0.205-0.37 0.568-0.751 1.090-1.145 0.529-0.394 0.993-0.638 1.39-0.732 0.206-0.049 0.396-0.023 0.569 0.078s0.278 0.226 0.314 0.375c0.017 0.071-0.044 0.145-0.184 0.223-0.126 0.074-0.336 0.184-0.549 0.29l-0.092 0.042c-0.283 0.134-0.53 0.275-0.743 0.423-0.743 0.505-1.080 0.902-1.011 1.193 0.037 0.156 0.555 0.493 1.555 1.012 0.385 0.201 0.748 0.455 1.091 0.763 0.348 0.299 0.558 0.597 0.628 0.895zM27.238 16.396c0.032 0.135 0.126 0.183 0.282 0.146 0.27-0.064 0.578-0.215 0.927-0.455 0.354-0.248 0.552-0.377 0.594-0.387 0.128-0.031 0.207 0.022 0.24 0.156 0.048 0.206-0.109 0.494-0.471 0.863-0.355 0.368-0.706 0.593-1.055 0.676-0.34 0.081-0.646 0.055-0.917-0.074-0.273-0.137-0.432-0.305-0.479-0.504s-0.063-0.46-0.050-0.784c0.012-0.332 0.036-0.768 0.074-1.308 0.042-0.549 0.070-1.001 0.084-1.355-0.315 0.157-0.529 0.249-0.643 0.276s-0.24-0.003-0.381-0.089c-0.135-0.095-0.215-0.196-0.24-0.302-0.041-0.17 0.383-0.442 1.269-0.817-0.011-0.618-0.071-1.154-0.178-1.607-0.050-0.213-0.004-0.336 0.138-0.369 0.121-0.029 0.288 0.014 0.503 0.127 0.212 0.107 0.342 0.256 0.386 0.447s0.065 0.542 0.058 1.052c0.229-0.084 0.548-0.181 0.873-0.265l0.083-0.018c0.426-0.1 0.661-0.059 0.705 0.126 0.025 0.106-0.071 0.222-0.289 0.348-0.21 0.125-0.667 0.349-1.37 0.673-0.017 0.594-0.053 1.28-0.11 2.057-0.058 0.769-0.068 1.231-0.032 1.387zM32.002 10.826c0.319-0.076 0.652 0.017 0.999 0.279 0.345 0.255 0.549 0.513 0.61 0.775 0.060 0.255 0.034 0.538-0.080 0.849 0.11 0.086 0.174 0.168 0.193 0.246 0.047 0.198 0.081 0.549 0.103 1.052 0.029 0.502 0.050 0.83 0.064 0.983 0.021 0.153 0.035 0.276 0.043 0.372 0.006 0.088 0.008 0.177 0.007 0.268 0.014 0.183-0.030 0.287-0.129 0.311-0.127 0.031-0.26-0.054-0.397-0.254-0.132-0.209-0.246-0.488-0.345-0.839-0.443 0.95-0.934 1.489-1.473 1.617-0.326 0.077-0.682 0.015-1.067-0.185-0.38-0.21-0.604-0.463-0.674-0.761-0.101-0.425-0.068-0.986 0.097-1.684 0.174-0.745 0.456-1.401 0.833-1.991l-0.015 0.026c0.382-0.607 0.792-0.962 1.233-1.066zM32.934 12.58c-0.156-0.658-0.365-0.957-0.628-0.895-0.277 0.066-0.553 0.34-0.828 0.825-0.263 0.446-0.477 0.962-0.615 1.509l-0.009 0.041c-0.138 0.556-0.173 0.98-0.105 1.27 0.027 0.119 0.109 0.215 0.217 0.261l0.002 0.001c0.116 0.047 0.242 0.055 0.377 0.023 0.334-0.079 0.657-0.391 0.97-0.936 0.312-0.553 0.473-1.17 0.484-1.854-0.004-0.111 0.042-0.19 0.136-0.234l-0.002-0.011z"></path>
        <path fill="#bbf330" style="fill: var(--color3, #bbf330)" d="M30.751 19.975c-0.305 0.080-0.545 0.306-0.642 0.597l-0.002 0.006c-1.907 5.652-7.247 9.717-13.529 9.717-3.81 0-7.274-1.495-9.835-3.934-0.165-0.16-0.391-0.259-0.64-0.259-0.075 0-0.149 0.009-0.219 0.026l0.006-0.001c-0.641 0.159-0.884 0.932-0.409 1.39 2.862 2.773 6.77 4.482 11.076 4.482 0.007 0 0.014 0 0.021 0h-0.001c7.079 0 13.084-4.606 15.186-10.986 0.207-0.626-0.371-1.198-1.013-1.040zM1.865 14.148c0.347-0.086 0.604-0.374 0.668-0.725 1.212-6.668 7.044-11.718 14.046-11.718 4.553 0 8.611 2.135 11.226 5.463 0.22 0.281 0.583 0.416 0.93 0.33 0.585-0.145 0.85-0.823 0.481-1.298-2.925-3.772-7.498-6.2-12.639-6.2-7.882 0-14.433 5.711-15.746 13.223-0.103 0.593 0.449 1.070 1.034 0.925zM40.615 5.332c-3.778 7.241-5.436 2.465-10.755 5.27 0.532-8.405 6.165-3.291 10.755-5.27z"></path>
        </symbol>
        <symbol id="icon-arrow" viewBox="0 0 19 32">
        <path d="M17.904 15.594c0.228 0.229 0.369 0.544 0.369 0.893s-0.141 0.664-0.369 0.893l-12.89 12.893c-0.229 0.228-0.544 0.369-0.893 0.369s-0.664-0.141-0.893-0.369l0 0-0.598-0.595c-0.23-0.229-0.372-0.546-0.372-0.896s0.142-0.667 0.372-0.896l11.398-11.395-11.398-11.402c-0.229-0.229-0.371-0.545-0.371-0.894s0.142-0.666 0.371-0.894v0l0.595-0.595c0.229-0.23 0.546-0.372 0.896-0.372s0.667 0.142 0.896 0.372l12.886 12.89z"></path>
        </symbol>
        <symbol id="icon-star" viewBox="0 0 34 32">
        <path fill="#ffe550" style="fill: var(--color1, #ffe550)" d="M15.42 1.038c0.584-1.384 2.576-1.384 3.16 0l3.448 8.162c0.246 0.582 0.804 0.98 1.444 1.032l8.952 0.706c1.516 0.12 2.132 1.982 0.976 2.958l-6.82 5.752c-0.367 0.308-0.598 0.767-0.598 1.281 0 0.138 0.017 0.272 0.048 0.401l-0.002-0.011 2.084 8.6c0.352 1.456-1.258 2.608-2.556 1.828l-7.664-4.61c-0.255-0.155-0.563-0.247-0.892-0.247s-0.637 0.092-0.9 0.251l0.008-0.004-7.664 4.61c-1.3 0.78-2.908-0.372-2.556-1.828l2.084-8.6c0.029-0.117 0.046-0.251 0.046-0.389 0-0.513-0.231-0.972-0.596-1.278l-0.003-0.002-6.82-5.75c-1.156-0.976-0.54-2.84 0.976-2.96l8.952-0.704c0.649-0.050 1.193-0.456 1.44-1.021l0.004-0.011 3.448-8.164z"></path>
        </symbol>
            
</svg>